<svg xmlns="http://www.w3.org/2000/svg" viewBox="0 0 128 128" role="img" aria-label="Presensi Cloud">
  <rect width="128" height="128" rx="30" fill="#0b76ef"/>
  <path fill="#fff" d="M64 23c18.2 0 33 14.8 33 33 0 3.3-2.7 6-6 6s-6-2.7-6-6c0-11.6-9.4-21-21-21s-21 9.4-21 21c0 18.6-9 23.3-9 36 0 3.3-2.7 6-6 6s-6-2.7-6-6c0-15.9 9-19.6 9-36 0-18.2 14.8-33 33-33Zm0 20c7.2 0 13 5.8 13 13 0 11.5-2.8 19.6-7.1 25.7-4.4 6.2-10 10.1-15.2 13.7-2.7 1.9-6.4 1.2-8.3-1.5s-1.2-6.4 1.5-8.3c4.8-3.4 8.8-6.2 12.3-11.1C63.7 69.6 65 63.9 65 56c0-.6-.4-1-1-1s-1 .4-1 1c0 15.5-2.8 24.9-9.9 32-2.3 2.3-6.1 2.3-8.5 0-2.3-2.3-2.3-6.1 0-8.5C49.4 74.7 51 68.1 51 56c0-7.2 5.8-13 13-13Zm25 27c3.3 0 6 2.7 6 6 0 9.2-2.5 18.1-6.8 25.4-1.7 2.9-5.3 3.8-8.2 2.2-2.8-1.7-3.8-5.3-2.2-8.2C81 89.9 83 82.9 83 76c0-3.3 2.7-6 6-6Z"/>
  <circle cx="96" cy="37" r="6" fill="#79e6b2"/>
  <circle cx="104" cy="53" r="4" fill="#fff"/>
</svg>
